<?xml version="1.0" encoding="utf-8"?>
<!-- Generator: Adobe Illustrator 18.0.0, SVG Export Plug-In . SVG Version: 6.00 Build 0)  -->
<!DOCTYPE svg PUBLIC "-//W3C//DTD SVG 1.1//EN" "http://www.w3.org/Graphics/SVG/1.1/DTD/svg11.dtd">
<svg version="1.1" id="Layer_1" xmlns="http://www.w3.org/2000/svg" xmlns:xlink="http://www.w3.org/1999/xlink" x="0px" y="0px"
	 viewBox="0 0 79.3 28.6" enable-background="new 0 0 79.3 28.6" xml:space="preserve">
<g>
	<path fill="#FED137" d="M9.1,3.6c1.2-2.1,3-3.2,4.5-3.2c8.5,0,3.8,12.9-5.8,12.9c-0.5,0-1-0.1-1.5-0.1l-0.8,1.3
		c-1.6,2.8-1.3,4.6,0.6,4.6c2.1,0,3.7-1.8,5.2-4.3l0.3-0.5h2.7l-3.4,5.9c2.1-0.9,4-2.6,6.3-5.1l0.2-0.2c0.4,0.2,0.8,0.6,1,0.9
		c-3,3.4-5.7,5.4-8.5,6.2l-2.1,3.6c-2,3.3-5.9,2.8-5.9,0.2c0-2,2.3-3.5,5.9-4.6l0.7-1.2c-0.8,0.5-1.8,0.9-2.9,0.9
		c-3.8,0-4.2-3.6-2.3-6.9L4,12.4c-2.2-1.1-3.4-3.2-3.4-5.4c0-1.8,0.9-3.7,2.8-5l0.9,1.6C3.1,4.5,2.5,5.8,2.5,7c0,1.5,0.8,3,2.4,3.8
		L9.1,3.6z M5.4,25.1l1.2-2.2c-2.1,0.8-2.7,1.6-2.7,2.3C3.9,26,4.8,26.1,5.4,25.1z M7.8,11.5c7.1,0,10.1-8.7,5.8-8.7
		c-0.8,0-1.6,0.6-2.4,2l-3.9,6.8H7.8z"/>
	<path fill="#FED137" d="M25.2,18.4c-3.6,4.6-10.2,2.4-6.8-3.4l1.2-2l1.3-2.3c1.6-2.7,3.2-3.5,5.3-3.5c2.5,0,4.1,2.7,2.4,5.5
		L26.1,17c1.4,0,2.9-0.7,4.1-2l0.2-0.2c0.4,0.2,0.8,0.6,1,0.9c-1.4,1.6-3.9,2.6-5.5,2.6H25.2z M24.4,15h0.1l2-3.4
		c1.6-2.8-1-4.1-2.9-0.9L22.4,13l-2.1,3.6c-1.6,2.8,1.5,3.2,2.8,1l0-0.1c-0.2-0.3-0.3-0.6-0.3-0.9C22.9,15.7,23.6,15,24.4,15z"/>
	<path fill="#FED137" d="M38.3,14.8c0.4,0.2,0.8,0.6,1,0.9c-2.2,2.6-4.8,5-7,5c-2.2,0-3-1.8-1.8-3.8l8.7-15.1h2.7l-9.1,15.8
		c-0.6,1.1-0.3,1.5,0.3,1.5c1.2,0,3.1-1.8,5-4.1L38.3,14.8z"/>
	<path fill="#FED137" d="M52.4,14.8c0.4,0.2,0.8,0.6,1,0.9c-2.2,2.6-4.8,5-7,5C45,20.8,44.1,20,44,19c-1.3,1.1-2.7,1.8-3.7,1.8
		c-2.2,0-3-1.8-1.8-3.8l3.8-6.6c1.1-2,3.2-3.1,4.6-3.1c1.1,0,2,0.6,2.5,1.4l4-6.9H56l-9.2,15.8c-0.6,1.1-0.3,1.5,0.3,1.5
		c1.2,0,3.1-1.8,5-4.1L52.4,14.8z M40.8,17.6c-0.6,1.1-0.3,1.5,0.3,1.5c1.1,0,2.8-1.3,4.4-4l2.1-3.5h0c1.3-2.4-1.6-3.1-3-0.6
		L40.8,17.6z"/>
	<path fill="#FED137" d="M56.1,15.4l-0.3,0.5c-1.2,2.2-0.3,3.2,1.4,3.2c1.9,0,4.4-1.8,6.3-4.1l0.2-0.2c0.4,0.2,0.8,0.6,1,0.9
		c-2.2,2.6-5.3,5-8.3,5c-3.2,0-4.7-2.7-3-5.5l2.8-4.9c1.1-2,2.9-3.1,5.1-3.1c2.2,0,3.6,1.9,2.2,4.4l-0.4,0.7
		C61.1,15.8,57.8,16.1,56.1,15.4z M56.9,14.1c1,0.4,2.8,0.4,4.1-1.8l0.4-0.7c1.6-2.8-1.1-3.3-2.7-0.6L56.9,14.1z"/>
	<path fill="#FED137" d="M77.8,14.8c0.4,0.2,0.8,0.6,1,0.9c-2.2,2.6-4.8,5-7,5c-2.2,0-3-1.8-1.8-3.8l3.5-6.1c1.2-2-0.7-2.7-4.8,2.5
		l-4.1,7.2h-2.7l7.5-13H72l-1,1.8c1.4-1.4,2.6-2,3.7-2c1.5,0,2.6,1.5,1.5,3.5l-3.9,6.8c-0.6,1.1-0.3,1.5,0.3,1.5
		c1.2,0,3.1-1.8,5-4.1L77.8,14.8z"/>
</g>
</svg>
